<?xml version="1.0" encoding="UTF-8" standalone="no"?>
<!-- Created with Inkscape (http://www.inkscape.org/) -->

<svg
   width="8.250083mm"
   height="7.9181561mm"
   viewBox="0 0 8.250083 7.9181561"
   version="1.1"
   id="svg5"
   xmlns="http://www.w3.org/2000/svg"
   xmlnsSvg="http://www.w3.org/2000/svg">
  <defs
     id="defs2">
    <linearGradient
       id="paint0_linear_195315_2"
       x1="25.873301"
       y1="26.3337"
       x2="7.5132499"
       y2="4.9008002"
       gradientUnits="userSpaceOnUse"
       gradientTransform="matrix(0.26458333,0,0,0.26458333,0.96712878,1.7556845)">
      <stop
         stop-color="#52D67A"
         id="stop140" />
      <stop
         offset="1"
         stop-color="#5AEE87"
         id="stop142" />
    </linearGradient>
  </defs>
  <g
     id="layer1"
     transform="translate(-1.2105278,-1.8647215)">
    <g id="g338" >
      <path
         d="m 8.9105088,8.0169425 c 0.007,0.08424 -0.0585,0.156634 -0.14224,0.156634 h -6.88323 c -0.0835,0 -0.14915,-0.07205 -0.14226,-0.156131 l 0.49327,-6.02039 c 0.006,-0.07479 0.068,-0.132334 0.1423,-0.132334 h 5.8761 c 0.0741,0 0.13586,0.05726 0.14221,0.131829 z"
         fill="#1dcf65"
         id="path132"
         style="stroke-width:0.264583" />
      <path
         d="m 9.4599388,9.5877215 c 0.009,0.105066 -0.0735,0.195156 -0.1778,0.195156 h -7.89316 c -0.10411,0 -0.18612,-0.08964 -0.17788,-0.194548 l 0.56665,-7.211623 c 0.007,-0.09379 0.0848,-0.16601 0.17788,-0.16601 h 6.73623 c 0.0929,0 0.1702,0.07193 0.17785,0.165433 z"
         fill="url(#paint0_linear_195315_2)"
         id="path134"
         style="fill:url(#paint0_linear_195315_2);stroke-width:0.264583" />
      <path
         d="m 5.1801488,7.4958985 c -1.02738,0 -1.86316,-1.013936 -1.86316,-2.260203 0,-0.0649 0.0521,-0.117554 0.11635,-0.117554 0.0643,0 0.11635,0.0526 0.11635,0.117554 0,1.116648 0.73143,2.025095 1.63051,2.025095 0.89906,0 1.6305,-0.908447 1.6305,-2.025095 0,-0.0649 0.0521,-0.117554 0.11636,-0.117554 0.0643,0 0.11634,0.0526 0.11634,0.117554 -3e-5,1.246267 -0.83587,2.260203 -1.86325,2.260203 z"
         fill="#ffffff"
         id="path136"
         style="stroke-width:0.264583" />
      <path
         d="m 6.3270888,5.2041835 c -0.0298,0 -0.0595,-0.01146 -0.0823,-0.03442 -0.0454,-0.04591 -0.0454,-0.120332 0,-0.166237 l 0.60295,-0.609172 c 0.0218,-0.02203 0.0514,-0.03443 0.0823,-0.03443 0.0309,0 0.0605,0.01237 0.0823,0.03443 l 0.59706,0.603245 c 0.0454,0.04591 0.0454,0.120333 0,0.166238 -0.0455,0.04588 -0.11912,0.0459 -0.16455,0 l -0.51482,-0.520092 -0.52065,0.526018 c -0.0227,0.02297 -0.0525,0.03442 -0.0823,0.03442 z"
         fill="#ffffff"
         id="path138"
         style="stroke-width:0.264583" />
    </g>
  </g>
</svg>
